<?xml version="1.0" encoding="UTF-8"?>
<svg id="Calque_2" data-name="Calque 2" xmlns="http://www.w3.org/2000/svg" xmlns:xlink="http://www.w3.org/1999/xlink" viewBox="0 0 212.52 224.55">
  <defs>
    <style>
      .cls-1, .cls-2, .cls-3, .cls-4, .cls-5, .cls-6, .cls-7, .cls-8, .cls-9, .cls-10, .cls-11, .cls-12, .cls-13, .cls-14, .cls-15, .cls-16, .cls-17, .cls-18 {
        stroke-width: 0px;
      }

      .cls-1, .cls-7 {
        fill: rgba(1, 1, 1, .6);
      }

      .cls-2 {
        fill: #ea506f;
      }

      .cls-19 {
        mask: url(#mask-2);
      }

      .cls-3 {
        fill: #734234;
      }

      .cls-4 {
        fill: #304451;
      }

      .cls-4, .cls-6, .cls-7, .cls-8, .cls-9, .cls-11, .cls-12, .cls-13, .cls-15, .cls-16 {
        fill-rule: evenodd;
      }

      .cls-20 {
        mask: url(#mask-3);
      }

      .cls-5 {
        fill: #262f34;
      }

      .cls-6 {
        fill: #1f3240;
      }

      .cls-8 {
        fill: #e7e6e6;
      }

      .cls-21 {
        mask: url(#mask-5);
      }

      .cls-9 {
        fill: rgba(1, 1, 1, .7);
      }

      .cls-10, .cls-13 {
        fill: #fff;
      }

      .cls-11 {
        fill: #d0c6ac;
      }

      .cls-12 {
        fill: rgba(1, 1, 1, .1);
      }

      .cls-14 {
        fill: #262c2f;
      }

      .cls-22 {
        mask: url(#mask-4);
      }

      .cls-15 {
        fill: #3b4d5b;
      }

      .cls-16, .cls-18 {
        fill: rgba(1, 1, 1, .16);
      }

      .cls-17 {
        fill: #edb98a;
      }

      .cls-23 {
        mask: url(#mask-1);
      }

      .cls-24 {
        mask: url(#mask);
      }

      .cls-25 {
        mask: url(#mask-6-3);
      }

      .cls-26 {
        mask: url(#mask-7);
      }

      .cls-27 {
        opacity: .6;
      }
    </style>
    <mask id="mask" x=".8" y="28.87" width="211.72" height="195.68" maskUnits="userSpaceOnUse">
      <g id="mask-6">
        <path id="path-5-2" data-name="path-5" class="cls-13" d="M125.91,144.84v14.75h3.21c31.89,0,57.74,25.85,57.74,57.74v7.22H26.46v-7.22c0-31.89,25.85-57.74,57.74-57.74h3.21v-14.75c-13.82-6.57-23.76-19.99-25.42-35.87-4.67-.66-8.26-4.67-8.26-9.53v-11.23c0-4.77,3.47-8.73,8.02-9.49v-4.94h0c0-24.8,20.11-44.91,44.91-44.91h0c24.8,0,44.91,20.11,44.91,44.91v4.94c4.55.76,8.02,4.72,8.02,9.49v11.23c0,4.85-3.59,8.87-8.26,9.53-1.66,15.88-11.59,29.3-25.42,35.87Z"/>
      </g>
    </mask>
    <mask id="mask-1" x="26.46" y="28.87" width="160.39" height="195.68" maskUnits="userSpaceOnUse">
      <g id="mask-6-2" data-name="mask-6">
        <path id="path-5-3" data-name="path-5" class="cls-13" d="M125.91,144.84v14.75h3.21c31.89,0,57.74,25.85,57.74,57.74v7.22H26.46v-7.22c0-31.89,25.85-57.74,57.74-57.74h3.21v-14.75c-13.82-6.57-23.76-19.99-25.42-35.87-4.67-.66-8.26-4.67-8.26-9.53v-11.23c0-4.77,3.47-8.73,8.02-9.49v-4.94h0c0-24.8,20.11-44.91,44.91-44.91h0c24.8,0,44.91,20.11,44.91,44.91v4.94c4.55.76,8.02,4.72,8.02,9.49v11.23c0,4.85-3.59,8.87-8.26,9.53-1.66,15.88-11.59,29.3-25.42,35.87Z"/>
      </g>
    </mask>
    <mask id="mask-2" x=".8" y="136.33" width="211.72" height="88.21" maskUnits="userSpaceOnUse">
      <g id="react-mask-2">
        <path id="react-path-1-2" data-name="react-path-1" class="cls-13" d="M133.89,159.83c29.65,2.43,52.96,27.27,52.96,57.55v7.18H26.46v-7.18c0-30.55,23.73-55.56,53.77-57.61-.02.3-.04.6-.04.9,0,9.51,12.03,17.23,26.87,17.23s26.87-7.71,26.87-17.23c0-.28-.01-.56-.03-.84Z"/>
      </g>
    </mask>
    <mask id="mask-3" x="26.46" y="140.29" width="160.39" height="84.26" maskUnits="userSpaceOnUse">
      <g id="react-mask-2-2" data-name="react-mask-2">
        <path id="react-path-1-3" data-name="react-path-1" class="cls-13" d="M133.89,159.83c29.65,2.43,52.96,27.27,52.96,57.55v7.18H26.46v-7.18c0-30.55,23.73-55.56,53.77-57.61-.02.3-.04.6-.04.9,0,9.51,12.03,17.23,26.87,17.23s26.87-7.71,26.87-17.23c0-.28-.01-.56-.03-.84Z"/>
      </g>
    </mask>
    <mask id="mask-4" x="91.51" y="109.07" width="30.3" height="24.06" maskUnits="userSpaceOnUse">
      <g id="react-mask-4">
        <path id="react-path-3-2" data-name="react-path-3" class="cls-13" d="M91.52,119.59c.85,7.61,7.3,13.53,15.14,13.53s14.33-5.96,15.15-13.6c.07-.62-.62-1.64-1.48-1.64h-27.23c-.87,0-1.66.95-1.58,1.71Z"/>
      </g>
    </mask>
    <mask id="mask-5" x="91.51" y="117.89" width="30.3" height="26.46" maskUnits="userSpaceOnUse">
      <g id="react-mask-4-2" data-name="react-mask-4">
        <path id="react-path-3-3" data-name="react-path-3" class="cls-13" d="M91.52,119.59c.85,7.61,7.3,13.53,15.14,13.53s14.33-5.96,15.15-13.6c.07-.62-.62-1.64-1.48-1.64h-27.23c-.87,0-1.66.95-1.58,1.71Z"/>
      </g>
    </mask>
    <mask id="mask-6-3" data-name="mask-6" x="0" y="0" width="212.52" height="224.55" maskUnits="userSpaceOnUse">
      <g id="react-mask-7">
        <rect id="react-path-9" class="cls-10" x=".8" width="211.72" height="224.55"/>
      </g>
    </mask>
    <mask id="mask-7" x="0" y="0" width="211.72" height="224.55" maskUnits="userSpaceOnUse">
      <g id="react-mask-6">
        <path id="react-path-8-2" data-name="react-path-8" class="cls-13" d="M144.47,32.01c-2.21-2.26-4.78-4.18-7.28-6.11-.55-.42-1.11-.84-1.65-1.28-.12-.1-1.38-1-1.53-1.33-.36-.8-.15-.18-.1-1.13.06-1.2,2.51-4.59.68-5.37-.8-.34-2.24.57-3.01.87-1.51.59-3.04,1.09-4.6,1.52.75-1.49,2.17-4.47-.51-3.67-2.09.62-4.03,2.22-6.13,2.97.69-1.14,3.47-4.66.96-4.86-.78-.06-3.05,1.4-3.89,1.71-2.52.94-5.08,1.54-7.73,2.02-8.98,1.62-19.48,1.16-27.79,5.25-6.41,3.15-12.73,8.04-16.43,14.27-3.57,6-4.9,12.57-5.65,19.45-.55,5.05-.59,10.27-.34,15.33.08,1.66.27,9.31,2.68,6.99,1.2-1.15,1.19-5.82,1.5-7.39.6-3.14,1.18-6.29,2.19-9.33,1.77-5.36,3.86-11.06,8.26-14.75,2.83-2.37,4.81-5.57,7.52-7.95,1.22-1.07.29-.96,2.24-.82,1.31.09,2.63.13,3.95.16,3.04.08,6.09.06,9.14.07,6.13.02,12.24.11,18.36-.21,2.72-.14,5.45-.22,8.17-.47,1.52-.14,4.21-1.11,5.46-.37,1.14.68,2.33,2.9,3.15,3.81,1.94,2.15,4.25,3.79,6.52,5.55,4.73,3.67,7.11,8.29,8.55,14.02,1.43,5.72,1.03,11.02,2.8,16.65.31.99,1.14,2.69,2.15,1.17.19-.28.14-1.84.14-2.74,0-3.62.92-6.34.91-9.99-.05-11.09-.4-25.56-8.7-34.03Z"/>
      </g>
    </mask>
  </defs>
  <g id="Calque_1-2" data-name="Calque 1">
    <g>
      <g id="Body">
        <path id="path-5" class="cls-11" d="M125.91,144.84v14.75h3.21c31.89,0,57.74,25.85,57.74,57.74v7.22H26.46v-7.22c0-31.89,25.85-57.74,57.74-57.74h3.21v-14.75c-13.82-6.57-23.76-19.99-25.42-35.87-4.67-.66-8.26-4.67-8.26-9.53v-11.23c0-4.77,3.47-8.73,8.02-9.49v-4.94h0c0-24.8,20.11-44.91,44.91-44.91h0c24.8,0,44.91,20.11,44.91,44.91v4.94c4.55.76,8.02,4.72,8.02,9.49v11.23c0,4.85-3.59,8.87-8.26,9.53-1.66,15.88-11.59,29.3-25.42,35.87Z"/>
        <g class="cls-24">
          <g id="Skin_-03-Brown" data-name="Skin/ðŸ‘¶ðŸ½-03-Brown">
            <g id="Color">
              <rect class="cls-17" x=".8" y="28.87" width="211.72" height="195.68"/>
            </g>
          </g>
        </g>
        <g class="cls-23">
          <path id="Neck-Shadow" class="cls-12" d="M151.57,92.22v18.44c0,24.8-20.11,44.91-44.91,44.91s-44.91-20.11-44.91-44.91v-18.44,12.03c0,24.8,20.11,44.91,44.91,44.91s44.91-20.11,44.91-44.91v-12.03Z"/>
        </g>
      </g>
      <g id="Clothing_Blazer-_-Shirt" data-name="Clothing/Blazer-+-Shirt">
        <g id="Shirt">
          <g id="Clothes">
            <path id="react-path-1" class="cls-8" d="M133.89,159.83c29.65,2.43,52.96,27.27,52.96,57.55v7.18H26.46v-7.18c0-30.55,23.73-55.56,53.77-57.61-.02.3-.04.6-.04.9,0,9.51,12.03,17.23,26.87,17.23s26.87-7.71,26.87-17.23c0-.28-.01-.56-.03-.84Z"/>
          </g>
          <g class="cls-19">
            <g id="Color_Palette_Black" data-name="Color/Palette/Black">
              <g id="_Color" data-name="ðŸ–Color">
                <rect class="cls-5" x=".8" y="136.33" width="211.72" height="88.21"/>
              </g>
            </g>
          </g>
          <g class="cls-20">
            <g id="Shadowy" class="cls-27">
              <g id="Hola-_" data-name="Hola-ðŸ‘‹ðŸ¼">
                <ellipse class="cls-18" cx="107.06" cy="161.87" rx="31.79" ry="21.58"/>
              </g>
            </g>
          </g>
        </g>
        <g id="Blazer">
          <path id="Saco" class="cls-15" d="M81.63,159.69c-30.69,1.35-55.16,26.66-55.16,57.68h0v7.18h55.62c-2.73-9.69-4.3-21.08-4.3-33.28,0-11.49,1.4-22.27,3.84-31.58ZM132.03,224.55h54.82v-7.18c0-30.75-24.04-55.89-54.35-57.64,2.44,9.3,3.83,20.07,3.83,31.54,0,12.2-1.57,23.59-4.3,33.28Z"/>
          <path id="Pocket-hanky" class="cls-8" d="M145.96,205.3l7.66-5.75h0c1.16-.87,2.75-.85,3.89.03l5.28,4.11-16.84,1.6Z"/>
          <path id="Wing" class="cls-4" d="M81.8,158.79c-3.21,15.5-1.87,37.42,4.01,65.76h-12.83l-11.23-28.87,4.81-7.22-4.81-4.81,15.24-24.06c1.63-.51,3.23-.77,4.81-.8Z"/>
          <path id="Wing-2" data-name="Wing" class="cls-4" d="M131.52,158.79c3.21,15.5,1.87,37.42-4.01,65.76h12.83l11.23-28.87-4.81-7.22,4.81-4.81-15.24-24.06c-1.63-.51-3.23-.77-4.81-.8Z"/>
        </g>
      </g>
      <g id="Face">
        <g id="Mouth_Smile" data-name="Mouth/Smile">
          <g id="Mouth">
            <path id="react-path-3" class="cls-9" d="M91.52,119.59c.85,7.61,7.3,13.53,15.14,13.53s14.33-5.96,15.15-13.6c.07-.62-.62-1.64-1.48-1.64h-27.23c-.87,0-1.66.95-1.58,1.71Z"/>
          </g>
          <g class="cls-22">
            <rect id="Teeth" class="cls-10" x="94.63" y="109.07" width="24.86" height="12.83" rx="4.01" ry="4.01"/>
          </g>
          <g class="cls-21">
            <g id="Tongue">
              <g>
                <circle class="cls-2" cx="102.65" cy="135.53" r="8.82"/>
                <circle class="cls-2" cx="110.67" cy="135.53" r="8.82"/>
              </g>
            </g>
          </g>
        </g>
        <g id="Nose_Default" data-name="Nose/Default">
          <path id="Nose" class="cls-16" d="M97.04,104.25c0,3.54,4.31,6.42,9.62,6.42h0c5.31,0,9.62-2.87,9.62-6.42"/>
        </g>
        <g id="Eyes_Default-_" data-name="Eyes/Default-ðŸ˜€">
          <circle id="Eye" class="cls-1" cx="85.81" cy="89.82" r="4.81"/>
          <circle id="Eye-2" data-name="Eye" class="cls-1" cx="127.51" cy="89.82" r="4.81"/>
        </g>
        <g id="Eyebrow_Natural_Default-Natural" data-name="Eyebrow/Natural/Default-Natural">
          <path id="Eyebrow" class="cls-7" d="M83.04,70.69c-4.66.22-12.19,3.6-11.99,8.3,0,.15.23.22.34.1,2.21-2.37,17.9-4.77,23.42-3.5.51.12.89-.38.57-.74-2.74-3.09-8.17-4.35-12.34-4.15"/>
          <path id="Eyebrow-2" data-name="Eyebrow" class="cls-7" d="M131.08,70.69c4.66.22,12.19,3.6,11.99,8.3,0,.15-.23.22-.34.1-2.21-2.37-17.9-4.77-23.42-3.5-.51.12-.89-.38-.57-.74,2.74-3.09,8.17-4.35,12.34-4.15"/>
        </g>
      </g>
      <g id="Top">
        <g class="cls-25">
          <g id="Top_Short-Hair_Short-Flat" data-name="Top/Short-Hair/Short-Flat">
            <g>
              <g id="Short-Hair">
                <path id="react-path-8" class="cls-6" d="M144.47,32.01c-2.21-2.26-4.78-4.18-7.28-6.11-.55-.42-1.11-.84-1.65-1.28-.12-.1-1.38-1-1.53-1.33-.36-.8-.15-.18-.1-1.13.06-1.2,2.51-4.59.68-5.37-.8-.34-2.24.57-3.01.87-1.51.59-3.04,1.09-4.6,1.52.75-1.49,2.17-4.47-.51-3.67-2.09.62-4.03,2.22-6.13,2.97.69-1.14,3.47-4.66.96-4.86-.78-.06-3.05,1.4-3.89,1.71-2.52.94-5.08,1.54-7.73,2.02-8.98,1.62-19.48,1.16-27.79,5.25-6.41,3.15-12.73,8.04-16.43,14.27-3.57,6-4.9,12.57-5.65,19.45-.55,5.05-.59,10.27-.34,15.33.08,1.66.27,9.31,2.68,6.99,1.2-1.15,1.19-5.82,1.5-7.39.6-3.14,1.18-6.29,2.19-9.33,1.77-5.36,3.86-11.06,8.26-14.75,2.83-2.37,4.81-5.57,7.52-7.95,1.22-1.07.29-.96,2.24-.82,1.31.09,2.63.13,3.95.16,3.04.08,6.09.06,9.14.07,6.13.02,12.24.11,18.36-.21,2.72-.14,5.45-.22,8.17-.47,1.52-.14,4.21-1.11,5.46-.37,1.14.68,2.33,2.9,3.15,3.81,1.94,2.15,4.25,3.79,6.52,5.55,4.73,3.67,7.11,8.29,8.55,14.02,1.43,5.72,1.03,11.02,2.8,16.65.31.99,1.14,2.69,2.15,1.17.19-.28.14-1.84.14-2.74,0-3.62.92-6.34.91-9.99-.05-11.09-.4-25.56-8.7-34.03Z"/>
              </g>
              <g class="cls-26">
                <g id="Skin_-03-Brown-2" data-name="Skin/ðŸ‘¶ðŸ½-03-Brown">
                  <g id="Color-2" data-name="Color">
                    <rect class="cls-3" width="211.72" height="224.55"/>
                  </g>
                </g>
              </g>
              <g id="Top__Resources_Prescription-02" data-name="Top/_Resources/Prescription-02">
                <g id="Wayfarers">
                  <path id="Left" class="cls-14" d="M81.8,106.66h-2.21c-11.17,0-17.84-6.15-17.84-16.44,0-8.32,1.46-16.44,18.87-16.44h2.36c17.41,0,18.87,8.12,18.87,16.44,0,9.68-8.24,16.44-20.05,16.44ZM80.5,78.59c-15.55,0-15.55,5.49-15.55,12.43,0,5.67,2.5,12.43,14.41,12.43h2.43c9.92,0,16.84-5.11,16.84-12.43s0-12.43-15.55-12.43h-2.59Z"/>
                  <path id="Right" class="cls-14" d="M131.52,106.66h-2.21c-11.17,0-17.84-6.15-17.84-16.44,0-8.32,1.46-16.44,18.87-16.44h2.36c17.41,0,18.87,8.12,18.87,16.44,0,9.68-8.24,16.44-20.05,16.44ZM130.23,78.59c-15.55,0-15.55,5.49-15.55,12.43,0,5.67,2.5,12.43,14.41,12.43h2.43c9.92,0,16.84-5.11,16.84-12.43s0-12.43-15.55-12.43h-2.59Z"/>
                  <path id="Stuff" class="cls-14" d="M56.9,78.41c.55-.54,6.62-4.63,23.69-4.63,14.32,0,17.35,1.49,21.93,3.73l.34.17c.32.11,1.95.67,3.86.73,1.74-.07,3.22-.55,3.66-.7,5.24-2.55,10.36-3.93,22.34-3.93,17.07,0,23.14,4.09,23.69,4.63,1.31,0,2.37,1.03,2.37,2.31v2.31c0,1.28-1.06,2.31-2.37,2.31,0,0-5.53,0-5.53,2.31s-1.57-3.35-1.57-4.63v-2.25c-2.89-1.11-8.06-3.16-16.59-3.16-9.5,0-14.23,1.68-18.28,3.36l.05.11v1.59s-1.78,4.29-1.78,4.29l-2.2-.87c-.2-.08-.62-.22-1.21-.36-1.64-.4-3.32-.53-4.81-.22-.55.11-1.05.28-1.52.51l-2.12,1.04-2.12-4.14.09-1.84.06-.16c-3.5-1.63-6.72-3.3-18.3-3.3-8.52,0-13.7,2.06-16.59,3.16v2.25c0,1.28-2.37,6.94-2.37,4.63s-4.74-2.31-4.74-2.31c-1.31,0-2.37-1.03-2.37-2.31v-2.31c0-1.28,1.06-2.31,2.37-2.31Z"/>
                </g>
              </g>
            </g>
          </g>
        </g>
      </g>
    </g>
  </g>
</svg>